<svg width="18" height="20" viewBox="0 0 18 20" fill="none" xmlns="http://www.w3.org/2000/svg">
<path opacity="0.3" d="M1.61532 6.71735L7.61532 2.03266C8.4291 1.39728 9.5709 1.39728 10.3847 2.03266L16.3847 6.71735C16.9308 7.14374 17.25 7.79796 17.25 8.49081V13.5135V16C17.25 17.7949 15.7949 19.25 14 19.25H12.5C12.3619 19.25 12.25 19.1381 12.25 19V16.5946C12.25 15.0758 11.0188 13.8446 9.5 13.8446H8C6.48122 13.8446 5.25 15.0758 5.25 16.5946V19C5.25 19.1381 5.13807 19.25 5 19.25H4C2.20508 19.25 0.75 17.7949 0.75 16V8.49081C0.75 7.79795 1.06921 7.14374 1.61532 6.71735Z" stroke="black" stroke-width="1.5"/>
</svg>
