<svg width="19" height="19" viewBox="0 0 19 19" fill="none" xmlns="http://www.w3.org/2000/svg">
<path d="M13.8145 18.0106C12.9199 18.0106 11.9778 17.7968 11.0041 17.3852C10.0541 16.9814 9.09617 16.4272 8.162 15.7543C7.23575 15.0735 6.34117 14.3135 5.49408 13.4822C4.65492 12.6352 3.89492 11.7406 3.222 10.8222C2.54117 9.87225 1.99492 8.92225 1.607 8.00391C1.19534 7.02225 0.989502 6.07225 0.989502 5.17766C0.989502 4.56016 1.10034 3.97433 1.31409 3.42808C1.53575 2.866 1.892 2.3435 2.37492 1.89225C2.9845 1.29058 3.68117 0.989746 4.42533 0.989746C4.73408 0.989746 5.05075 1.061 5.31992 1.18766C5.62867 1.33016 5.88992 1.54391 6.07992 1.82891L7.91658 4.41766C8.08283 4.64725 8.2095 4.86891 8.29658 5.09058C8.3995 5.32808 8.45492 5.56558 8.45492 5.79516C8.45492 6.096 8.36783 6.38891 8.20158 6.666C8.08283 6.87975 7.90075 7.10933 7.67117 7.33891L7.13283 7.901C7.14075 7.92475 7.14867 7.94058 7.15658 7.95641C7.25158 8.12266 7.44158 8.40766 7.80575 8.83516C8.19367 9.2785 8.55783 9.68225 8.922 10.0543C9.38908 10.5135 9.777 10.8777 10.1412 11.1785C10.5924 11.5585 10.8853 11.7485 11.0595 11.8356L11.0437 11.8752L11.6216 11.3052C11.867 11.0597 12.1045 10.8777 12.3341 10.7589C12.7695 10.4897 13.3237 10.4422 13.8778 10.6718C14.0837 10.7589 14.3053 10.8777 14.5428 11.0439L17.1712 12.9122C17.4641 13.1102 17.6778 13.3635 17.8045 13.6643C17.9233 13.9652 17.9787 14.2422 17.9787 14.5193C17.9787 14.8993 17.8916 15.2793 17.7253 15.6356C17.5591 15.9918 17.3533 16.3006 17.092 16.5856C16.6407 17.0843 16.1499 17.4406 15.5799 17.6702C15.0337 17.8918 14.4399 18.0106 13.8145 18.0106ZM4.42533 2.17725C3.98992 2.17725 3.58617 2.36725 3.19825 2.74725C2.83408 3.08766 2.58075 3.45975 2.42242 3.8635C2.25617 4.27516 2.177 4.71058 2.177 5.17766C2.177 5.91391 2.35117 6.7135 2.6995 7.53683C3.05575 8.376 3.5545 9.24683 4.18783 10.1177C4.82117 10.9885 5.54158 11.8356 6.33325 12.6352C7.12492 13.4189 7.97992 14.1472 8.85867 14.7885C9.71367 15.4139 10.5924 15.9206 11.4633 16.2847C12.817 16.8627 14.0837 16.9972 15.1287 16.5618C15.5324 16.3956 15.8887 16.1422 16.2132 15.7781C16.3953 15.5802 16.5378 15.3664 16.6566 15.1131C16.7516 14.9152 16.7991 14.7093 16.7991 14.5035C16.7991 14.3768 16.7753 14.2502 16.712 14.1077C16.6883 14.0602 16.6407 13.9731 16.4903 13.8702L13.862 12.0018C13.7037 11.891 13.5612 11.8118 13.4266 11.7564C13.2524 11.6852 13.1812 11.6139 12.912 11.7802C12.7537 11.8593 12.6112 11.9781 12.4528 12.1364L11.8512 12.7302C11.5424 13.031 11.0674 13.1022 10.7033 12.9677L10.4895 12.8727C10.1649 12.6985 9.78492 12.4293 9.36533 12.0731C8.98533 11.7485 8.57367 11.3685 8.07492 10.8777C7.687 10.4818 7.29908 10.0622 6.89533 9.59516C6.52325 9.15975 6.25408 8.78766 6.08783 8.47891L5.99283 8.24141C5.94533 8.05933 5.9295 7.95641 5.9295 7.84558C5.9295 7.56058 6.03242 7.30725 6.23033 7.10933L6.82408 6.49183C6.98242 6.3335 7.10117 6.18308 7.18033 6.0485C7.24367 5.94558 7.26742 5.8585 7.26742 5.77933C7.26742 5.716 7.24367 5.621 7.20408 5.526C7.14867 5.39933 7.06158 5.25683 6.95075 5.10641L5.11408 2.50975C5.03492 2.39891 4.93992 2.31975 4.82117 2.26433C4.6945 2.20891 4.55992 2.17725 4.42533 2.17725ZM11.0437 11.8831L10.917 12.4214L11.1308 11.8672C11.0912 11.8593 11.0595 11.8672 11.0437 11.8831Z" fill="#292D32"/>
</svg>
