<svg width="19" height="19" viewBox="0 0 19 19" fill="none" xmlns="http://www.w3.org/2000/svg">
<path d="M9.49992 18.0106C4.80534 18.0106 0.989502 14.1947 0.989502 9.50016C0.989502 4.80558 4.80534 0.989746 9.49992 0.989746C14.1945 0.989746 18.0103 4.80558 18.0103 9.50016C18.0103 14.1947 14.1945 18.0106 9.49992 18.0106ZM9.49992 2.17725C5.46242 2.17725 2.177 5.46266 2.177 9.50016C2.177 13.5377 5.46242 16.8231 9.49992 16.8231C13.5374 16.8231 16.8228 13.5377 16.8228 9.50016C16.8228 5.46266 13.5374 2.17725 9.49992 2.17725Z" fill="#292D32"/>
<path d="M12.4372 12.6111C12.3343 12.6111 12.2313 12.5874 12.1363 12.5241L9.68217 11.0595C9.07259 10.6953 8.62134 9.89573 8.62134 9.19115V5.94531C8.62134 5.62073 8.8905 5.35156 9.21509 5.35156C9.53967 5.35156 9.80884 5.62073 9.80884 5.94531V9.19115C9.80884 9.47615 10.0463 9.89573 10.2918 10.0382L12.7459 11.5028C13.0309 11.6691 13.118 12.0332 12.9518 12.3182C12.833 12.5082 12.6351 12.6111 12.4372 12.6111Z" fill="#292D32"/>
</svg>
