<svg width="19" height="19" viewBox="0 0 19 19" fill="none" xmlns="http://www.w3.org/2000/svg">
<path d="M9.50003 11.2177C7.81378 11.2177 6.43628 9.84814 6.43628 8.15398C6.43628 6.45981 7.81378 5.09814 9.50003 5.09814C11.1863 5.09814 12.5638 6.46773 12.5638 8.16189C12.5638 9.85606 11.1863 11.2177 9.50003 11.2177ZM9.50003 6.28564C8.47086 6.28564 7.62378 7.12481 7.62378 8.16189C7.62378 9.19898 8.46295 10.0381 9.50003 10.0381C10.5371 10.0381 11.3763 9.19898 11.3763 8.16189C11.3763 7.12481 10.5292 6.28564 9.50003 6.28564Z" fill="#292D32"/>
<path d="M9.50008 18.0185C8.32841 18.0185 7.14883 17.5752 6.23049 16.6964C3.89508 14.4481 1.31425 10.8618 2.288 6.59475C3.16675 2.7235 6.54716 0.989746 9.50008 0.989746C9.50008 0.989746 9.50008 0.989746 9.508 0.989746C12.4609 0.989746 15.8413 2.7235 16.7201 6.60266C17.6859 10.8697 15.1051 14.4481 12.7697 16.6964C11.8513 17.5752 10.6717 18.0185 9.50008 18.0185ZM9.50008 2.17725C7.19633 2.17725 4.2355 3.40433 3.45175 6.856C2.59675 10.5847 4.94008 13.7989 7.06175 15.8335C8.43133 17.1556 10.5767 17.1556 11.9463 15.8335C14.0601 13.7989 16.4034 10.5847 15.5642 6.856C14.7726 3.40433 11.8038 2.17725 9.50008 2.17725Z" fill="#292D32"/>
</svg>
