<svg width="19" height="19" viewBox="0 0 19 19" fill="none" xmlns="http://www.w3.org/2000/svg">
<path d="M13.4583 16.8231H5.54158C2.652 16.8231 0.989502 15.1606 0.989502 12.271V6.72933C0.989502 3.83975 2.652 2.17725 5.54158 2.17725H13.4583C16.3478 2.17725 18.0103 3.83975 18.0103 6.72933V12.271C18.0103 15.1606 16.3478 16.8231 13.4583 16.8231ZM5.54158 3.36475C3.27742 3.36475 2.177 4.46516 2.177 6.72933V12.271C2.177 14.5352 3.27742 15.6356 5.54158 15.6356H13.4583C15.7224 15.6356 16.8228 14.5352 16.8228 12.271V6.72933C16.8228 4.46516 15.7224 3.36475 13.4583 3.36475H5.54158Z" fill="#292D32"/>
<path d="M9.49978 10.1885C8.83478 10.1885 8.16187 9.98265 7.64729 9.56307L5.16937 7.5839C4.91603 7.37807 4.86854 7.00598 5.07437 6.75265C5.2802 6.49931 5.65229 6.45182 5.90562 6.65765L8.38353 8.63682C8.9852 9.11974 10.0064 9.11974 10.6081 8.63682L13.086 6.65765C13.3394 6.45182 13.7194 6.4914 13.9173 6.75265C14.1231 7.00598 14.0835 7.38598 13.8223 7.5839L11.3444 9.56307C10.8377 9.98265 10.1648 10.1885 9.49978 10.1885Z" fill="#292D32"/>
</svg>
