<svg width="18" height="18" viewBox="0 0 18 18" fill="none" xmlns="http://www.w3.org/2000/svg">
<path opacity="0.6" d="M9 18L8.0775 17.0914C6.4875 15.5034 5.175 14.1323 4.14 12.9782C3.105 11.824 2.28 10.7926 1.665 9.88404C1.05 8.97544 0.61875 8.1528 0.37125 7.4161C0.12375 6.6794 0 5.93452 0 5.18145C0 3.70805 0.45375 2.47613 1.36125 1.48568C2.26875 0.495225 3.39 0 4.725 0C5.58 0 6.37125 0.22101 7.09875 0.663029C7.82625 1.10505 8.46 1.74352 9 2.57844C9.63 1.69441 10.2975 1.04366 11.0025 0.626194C11.7075 0.208731 12.465 0 13.275 0C14.61 0 15.7312 0.495225 16.6387 1.48568C17.5462 2.47613 18 3.70805 18 5.18145C18 5.93452 17.8762 6.6794 17.6287 7.4161C17.3812 8.1528 16.95 8.97544 16.335 9.88404C15.72 10.7926 14.895 11.824 13.86 12.9782C12.825 14.1323 11.5125 15.5034 9.9225 17.0914L9 18ZM9 16.06C10.515 14.5375 11.7638 13.2319 12.7463 12.1432C13.7288 11.0546 14.5087 10.101 15.0863 9.2824C15.6638 8.46385 16.0687 7.73533 16.3012 7.09686C16.5337 6.45839 16.65 5.81992 16.65 5.18145C16.65 4.10096 16.335 3.21282 15.705 2.51705C15.075 1.82128 14.265 1.4734 13.275 1.4734C12.51 1.4734 11.7975 1.73124 11.1375 2.24693C10.4775 2.76262 9.945 3.48704 9.54 4.42019H8.4375C8.0475 3.50341 7.5225 2.78308 6.8625 2.25921C6.2025 1.73533 5.49 1.4734 4.725 1.4734C3.735 1.4734 2.925 1.82128 2.295 2.51705C1.665 3.21282 1.35 4.10096 1.35 5.18145C1.35 5.81992 1.46625 6.46248 1.69875 7.10914C1.93125 7.7558 2.33625 8.4925 2.91375 9.31923C3.49125 10.146 4.275 11.0996 5.265 12.1801C6.255 13.2606 7.5 14.5539 9 16.06Z" fill="#FF0000"/>
</svg>
