<svg width="33" height="28" viewBox="0 0 33 28" fill="none" xmlns="http://www.w3.org/2000/svg">
<path d="M16.3011 27.777C16.0894 27.7783 15.8796 27.7378 15.6836 27.6579C15.4877 27.5779 15.3094 27.46 15.1591 27.311L2.6621 14.797C1.85693 14.021 1.21449 13.0923 0.772315 12.0652C0.330137 11.0381 0.0970879 9.93311 0.0867831 8.8149C0.0764784 7.69669 0.289125 6.58764 0.712299 5.55255C1.13547 4.51745 1.76069 3.57707 2.55142 2.78634C3.34214 1.99561 4.28253 1.3704 5.31762 0.947223C6.35272 0.524049 7.46177 0.311403 8.57998 0.321707C9.69819 0.332012 10.8031 0.565061 11.8303 1.00724C12.8574 1.44942 13.7861 2.09186 14.5621 2.89702L16.3011 4.63402L18.0381 2.89702C18.8141 2.09186 19.7428 1.44942 20.7699 1.00724C21.7971 0.565061 22.902 0.332012 24.0202 0.321707C25.1384 0.311403 26.2475 0.524049 27.2826 0.947223C28.3177 1.3704 29.2581 1.99561 30.0488 2.78634C30.8395 3.57707 31.4647 4.51745 31.8879 5.55255C32.3111 6.58764 32.5237 7.69669 32.5134 8.8149C32.5031 9.93311 32.2701 11.0381 31.8279 12.0652C31.3857 13.0923 30.7433 14.021 29.9381 14.797L17.4381 27.311C17.2878 27.46 17.1095 27.5779 16.9136 27.6579C16.7176 27.7378 16.5078 27.7783 16.2961 27.777H16.3011Z" fill="#F24F04"/>
</svg>
