<svg width="22" height="16" viewBox="0 0 22 16" fill="none" xmlns="http://www.w3.org/2000/svg">
<path d="M16.2734 15.9688L15.043 14.5039C17.4453 13.8594 18.3828 12.2188 18.3828 12.2188C15.3359 15.0898 7.01562 15.207 3.79297 12.2188C3.79297 12.2188 4.61328 13.7422 7.07422 14.5039L5.72656 15.9688C1.625 15.9102 0.0429688 13.1562 0.0429688 13.1562C0.0429688 7.0625 2.73828 2.19922 2.73828 2.19922C5.49219 0.265625 8.01172 0.265625 8.01172 0.265625L8.1875 0.5C4.78906 1.4375 3.32422 2.96094 3.32422 2.96094C7.30859 0.265625 15.5117 0.5 18.7344 2.96094C18.793 2.90234 16.8008 1.32031 13.6953 0.5L13.9883 0.265625C13.9883 0.265625 16.5078 0.265625 19.2617 2.19922C19.2617 2.19922 21.957 7.0625 21.957 13.1562C21.957 13.1562 20.375 15.9102 16.2734 15.9688Z" fill="#4353FF"/>
</svg>
