<svg width="18" height="18" viewBox="0 0 18 18" fill="none" xmlns="http://www.w3.org/2000/svg">
<path d="M9.00008 6.93329C8.59133 6.93329 8.19176 7.0545 7.8519 7.28159C7.51204 7.50868 7.24715 7.83145 7.09073 8.20908C6.93431 8.58671 6.89338 9.00225 6.97313 9.40315C7.05287 9.80404 7.2497 10.1723 7.53873 10.4613C7.82776 10.7503 8.196 10.9472 8.59689 11.0269C8.99779 11.1067 9.41333 11.0657 9.79096 10.9093C10.1686 10.7529 10.4914 10.488 10.7185 10.1481C10.9455 9.80828 11.0667 9.40871 11.0667 8.99996C11.0667 8.72856 11.0133 8.45982 10.9094 8.20908C10.8056 7.95834 10.6533 7.73051 10.4614 7.53861C10.2695 7.3467 10.0417 7.19447 9.79096 7.09061C9.54022 6.98675 9.27148 6.93329 9.00008 6.93329V6.93329ZM17.2751 4.89163C17.2707 4.24809 17.1522 3.61044 16.9251 3.00829C16.7578 2.56768 16.499 2.16754 16.1658 1.83428C15.8325 1.50102 15.4324 1.24222 14.9917 1.07496C14.3896 0.847846 13.7519 0.729343 13.1084 0.724959C12.0334 0.666626 11.7167 0.666626 9.00008 0.666626C6.28341 0.666626 5.96675 0.666626 4.89175 0.724959C4.24821 0.729343 3.61056 0.847846 3.00841 1.07496C2.5678 1.24222 2.16766 1.50102 1.8344 1.83428C1.50115 2.16754 1.24235 2.56768 1.07508 3.00829C0.847968 3.61044 0.729465 4.24809 0.725081 4.89163C0.666748 5.96663 0.666748 6.28329 0.666748 8.99996C0.666748 11.7166 0.666748 12.0333 0.725081 13.1083C0.734051 13.7541 0.852393 14.3937 1.07508 15C1.2416 15.4386 1.50019 15.8364 1.83341 16.1666C2.16524 16.5019 2.56624 16.7607 3.00841 16.925C3.61056 17.1521 4.24821 17.2706 4.89175 17.275C5.96675 17.3333 6.28341 17.3333 9.00008 17.3333C11.7167 17.3333 12.0334 17.3333 13.1084 17.275C13.7519 17.2706 14.3896 17.1521 14.9917 16.925C15.4339 16.7607 15.8349 16.5019 16.1667 16.1666C16.5 15.8364 16.7586 15.4386 16.9251 15C17.152 14.3949 17.2705 13.7545 17.2751 13.1083C17.3334 12.0333 17.3334 11.7166 17.3334 8.99996C17.3334 6.28329 17.3334 5.96663 17.2751 4.89163V4.89163ZM15.1584 11.5583C15.1317 12.0725 15.0219 12.5791 14.8334 13.0583C14.6716 13.458 14.4311 13.8212 14.1262 14.1261C13.8213 14.431 13.4582 14.6715 13.0584 14.8333C12.5747 15.0113 12.0653 15.1098 11.5501 15.125C10.8917 15.125 10.7167 15.125 9.00008 15.125C7.28341 15.125 7.10841 15.125 6.45008 15.125C5.93486 15.1098 5.42549 15.0113 4.94175 14.8333C4.5285 14.6797 4.15531 14.4347 3.85008 14.1166C3.54814 13.8177 3.31495 13.4565 3.16675 13.0583C2.98805 12.5751 2.89225 12.0651 2.88341 11.55C2.88341 10.8916 2.88341 10.7166 2.88341 8.99996C2.88341 7.28329 2.88341 7.10829 2.88341 6.44996C2.89225 5.93481 2.98805 5.42486 3.16675 4.94163C3.32032 4.52838 3.56531 4.15519 3.88341 3.84996C4.18369 3.54965 4.54447 3.3167 4.94175 3.16663C5.42549 2.98863 5.93486 2.89013 6.45008 2.87496V2.87496C7.10841 2.87496 7.28341 2.87496 9.00008 2.87496C10.7167 2.87496 10.8917 2.87496 11.5501 2.87496C12.0653 2.89013 12.5747 2.98863 13.0584 3.16663C13.4717 3.32019 13.8449 3.56519 14.1501 3.88329C14.452 4.18225 14.6852 4.5434 14.8334 4.94163C15.0114 5.42537 15.1099 5.93473 15.1251 6.44996C15.1251 7.10829 15.1251 7.28329 15.1251 8.99996C15.1251 10.7166 15.1834 10.8916 15.1584 11.55V11.5583ZM13.8251 5.35829C13.7259 5.08911 13.5694 4.84466 13.3666 4.6418C13.1637 4.43895 12.9193 4.28251 12.6501 4.18329C12.2805 4.05518 11.8912 3.99312 11.5001 3.99996C10.8501 3.99996 10.6667 3.99996 9.00008 3.99996C7.33341 3.99996 7.15008 3.99996 6.50008 3.99996C6.10697 4.0038 5.71764 4.07715 5.35008 4.21663C5.08502 4.31134 4.84316 4.46139 4.64057 4.65679C4.43798 4.8522 4.2793 5.08849 4.17508 5.34996C4.05406 5.7211 3.99494 6.10962 4.00008 6.49996C4.00008 7.14996 4.00008 7.33329 4.00008 8.99996C4.00008 10.6666 4.00008 10.85 4.00008 11.5C4.00834 11.8926 4.08156 12.2812 4.21675 12.65C4.31597 12.9191 4.4724 13.1636 4.67526 13.3664C4.87812 13.5693 5.12257 13.7257 5.39175 13.825C5.7473 13.9557 6.12146 14.0289 6.50008 14.0416V14.0416C7.15008 14.0416 7.33341 14.0416 9.00008 14.0416C10.6667 14.0416 10.8501 14.0416 11.5001 14.0416C11.8932 14.0378 12.2825 13.9644 12.6501 13.825C12.9193 13.7257 13.1637 13.5693 13.3666 13.3664C13.5694 13.1636 13.7259 12.9191 13.8251 12.65C13.9646 12.2824 14.0379 11.8931 14.0417 11.5C14.0417 10.85 14.0417 10.6666 14.0417 8.99996C14.0417 7.33329 14.0417 7.14996 14.0417 6.49996C14.042 6.10646 13.9685 5.71639 13.8251 5.34996V5.35829ZM9.00008 12.1833C8.58243 12.1833 8.16889 12.1009 7.78313 11.9408C7.39738 11.7807 7.047 11.5461 6.75207 11.2504C6.45713 10.9547 6.22344 10.6037 6.06437 10.2175C5.9053 9.83137 5.82398 9.41761 5.82508 8.99996V8.99996C5.82508 8.37 6.01199 7.75421 6.36215 7.23053C6.71231 6.70686 7.20997 6.29885 7.79214 6.05815C8.3743 5.81746 9.01479 5.75491 9.63252 5.87842C10.2503 6.00192 10.8175 6.30593 11.2623 6.75197C11.7072 7.198 12.0097 7.76599 12.1316 8.38405C12.2535 9.0021 12.1892 9.64242 11.947 10.224C11.7048 10.8055 11.2955 11.3021 10.7709 11.6509C10.2463 11.9996 9.63004 12.1849 9.00008 12.1833V12.1833ZM12.3334 6.44163C12.1492 6.42213 11.9787 6.33514 11.8548 6.19743C11.7309 6.05973 11.6624 5.88104 11.6624 5.69579C11.6624 5.51055 11.7309 5.33186 11.8548 5.19415C11.9787 5.05644 12.1492 4.96946 12.3334 4.94996V4.94996C12.5176 4.96946 12.6881 5.05644 12.812 5.19415C12.9359 5.33186 13.0045 5.51055 13.0045 5.69579C13.0045 5.88104 12.9359 6.05973 12.812 6.19743C12.6881 6.33514 12.5176 6.42213 12.3334 6.44163Z" fill="#4353FF"/>
</svg>
