<svg width="18" height="14" viewBox="0 0 18 14" fill="none" xmlns="http://www.w3.org/2000/svg">
<path d="M17.3334 1.83339C16.707 2.10513 16.0446 2.28477 15.3667 2.36672C16.0819 1.93949 16.6178 1.26737 16.8751 0.475053C16.203 0.875105 15.4674 1.15697 14.7001 1.30839C14.1872 0.752196 13.5042 0.381966 12.7583 0.255762C12.0123 0.129558 11.2455 0.254518 10.5782 0.611044C9.91095 0.96757 9.38086 1.5355 9.07111 2.22575C8.76137 2.916 8.68949 3.68954 8.86675 4.42505C7.50794 4.35632 6.17878 4.00251 4.96563 3.3866C3.75247 2.77069 2.68245 1.90646 1.82508 0.850052C1.52436 1.37519 1.36635 1.9699 1.36675 2.57505C1.36568 3.13704 1.5036 3.69057 1.76821 4.18636C2.03283 4.68215 2.41593 5.10481 2.88341 5.41672C2.34006 5.40194 1.80832 5.25613 1.33341 4.99172V5.03339C1.33749 5.82079 1.61341 6.58263 2.11451 7.19002C2.61561 7.79742 3.31113 8.21309 4.08341 8.36672C3.78613 8.45719 3.47748 8.50489 3.16675 8.50839C2.95166 8.50587 2.7371 8.48637 2.52508 8.45005C2.74501 9.1274 3.1706 9.71934 3.74264 10.1435C4.31469 10.5677 5.00473 10.803 5.71675 10.8167C4.51442 11.7628 3.02998 12.2791 1.50008 12.2834C1.22153 12.2843 0.943194 12.2676 0.666748 12.2334C2.22877 13.2419 4.04909 13.7773 5.90841 13.7751C7.19149 13.7884 8.46436 13.5459 9.65268 13.0618C10.841 12.5777 11.9209 11.8616 12.8294 10.9555C13.7379 10.0493 14.4567 8.97121 14.9439 7.78414C15.431 6.59707 15.6768 5.32483 15.6667 4.04172C15.6667 3.90005 15.6667 3.75005 15.6667 3.60005C16.3207 3.11239 16.8846 2.51457 17.3334 1.83339V1.83339Z" fill="#4353FF"/>
</svg>
