<svg width="24" height="78" viewBox="0 0 24 78" fill="none" xmlns="http://www.w3.org/2000/svg">
<rect x="2.75" y="2.75" width="9.5" height="9.5" rx="2.25" stroke="#FF9228" stroke-width="1.5"/>
<path d="M4 15V15C4 17.7614 6.23858 20 9 20V20" stroke="#FF9228" stroke-width="1.5" stroke-linecap="round"/>
<path d="M15 4V4C17.7614 4 20 6.23858 20 9V9" stroke="#FF9228" stroke-width="1.5" stroke-linecap="round"/>
<rect x="11.75" y="11.75" width="9.5" height="9.5" rx="2.25" stroke="#FF9228" stroke-width="1.5"/>
<path d="M15.2997 75.1621C15.406 75.3546 15.523 75.5394 15.65 75.7152C15.2473 75.9603 14.7898 76.0831 14.2778 76.0835V77.3372C15.116 77.3372 15.8649 77.0861 16.5 76.5997C17.1351 77.0861 17.884 77.3372 18.7222 77.3372V76.0835C18.2112 76.0835 17.7538 75.9606 17.35 75.715C17.477 75.5392 17.594 75.3545 17.7003 75.1621C18.0205 74.5746 18.256 73.9335 18.398 73.2628H19V72.0091H17.0556V71.0688H15.9444V72.0091H14V73.2628H14.602C14.744 73.9335 14.9795 74.5746 15.2997 75.1621ZM17.2476 73.2628C17.1326 73.6966 16.968 74.1117 16.758 74.4976C16.6795 74.6399 16.5933 74.7766 16.5 74.9069C16.4134 74.7862 16.3331 74.66 16.2594 74.5288C16.0408 74.1344 15.8702 73.7085 15.7523 73.2628H17.2476Z" fill="#FF9228"/>
<path d="M8.96582 10.3765L8.55176 9.01709H6.46973L6.05566 10.3765H4.75098L6.7666 4.64209H8.24707L10.2705 10.3765H8.96582ZM8.2627 8.00146L7.84863 6.67334C7.82259 6.5848 7.78743 6.47152 7.74316 6.3335C7.7015 6.19287 7.65853 6.05094 7.61426 5.90771C7.57259 5.76188 7.53874 5.63558 7.5127 5.52881C7.48665 5.63558 7.4502 5.76839 7.40332 5.92725C7.35905 6.0835 7.31608 6.23193 7.27441 6.37256C7.23275 6.51318 7.2028 6.61344 7.18457 6.67334L6.77441 8.00146H8.2627Z" fill="#FF9228"/>
</svg>
