<svg width="24" height="27" viewBox="0 0 24 27" fill="none" xmlns="http://www.w3.org/2000/svg">
<path d="M21.75 12L21.75 11.25L20.25 11.25L20.25 12L21.75 12ZM20.25 17C20.25 17.4142 20.5858 17.75 21 17.75C21.4142 17.75 21.75 17.4142 21.75 17L20.25 17ZM20.25 12L20.25 17L21.75 17L21.75 12L20.25 12Z" fill="#FF9228"/>
<path d="M6 13V20.2706V20.2706C9.43862 23.2676 14.5614 23.2676 18 20.2706V20.2706V13" stroke="#FF9228" stroke-width="1.5"/>
<path d="M9.61203 7.99108C11.1119 7.22505 12.8881 7.22505 14.388 7.99108L21.3553 11.5496L14.388 15.1081C12.8881 15.8741 11.1119 15.8741 9.61203 15.1081L2.6447 11.5496L9.61203 7.99108Z" stroke="#FF9228" stroke-width="1.5"/>
</svg>
