<svg width="24" height="24" viewBox="0 0 24 24" fill="none" xmlns="http://www.w3.org/2000/svg">
<path d="M6.75806 11.9326L3.42726 17.7017C3.2435 18.02 3.45439 18.4211 3.82075 18.4502L6.24985 18.6427C6.40003 18.6546 6.53683 18.7336 6.62224 18.8577L8.00355 20.8651C8.21189 21.1679 8.66471 21.1499 8.84847 20.8317L12.1793 15.0626" stroke="#FF9228" stroke-width="1.5"/>
<path d="M17.2981 12.0474L20.6052 17.7754C20.7886 18.0932 20.5787 18.4938 20.213 18.5237L17.7848 18.7225C17.6355 18.7348 17.4996 18.8132 17.4144 18.9364L16.0281 20.9398C15.8193 21.2416 15.3674 21.2231 15.184 20.9053L11.8769 15.1773" stroke="#FF9228" stroke-width="1.5"/>
<rect x="5.75" y="2.75" width="12.5" height="12.5" rx="6.25" stroke="#FF9228" stroke-width="1.5"/>
<path d="M11.3342 6.0797C11.5437 5.43478 12.4561 5.43478 12.6656 6.0797L12.9584 6.98067C13.0521 7.26908 13.3209 7.46436 13.6241 7.46436H14.5715C15.2496 7.46436 15.5315 8.33209 14.9829 8.73067L14.2165 9.2875C13.9712 9.46575 13.8685 9.78171 13.9622 10.0701L14.255 10.9711C14.4645 11.616 13.7264 12.1523 13.1778 11.7537L12.4114 11.1969C12.166 11.0186 11.8338 11.0186 11.5885 11.1969L10.822 11.7537C10.2734 12.1523 9.53531 11.616 9.74486 10.9711L10.0376 10.0701C10.1313 9.78171 10.0287 9.46575 9.78331 9.2875L9.0169 8.73067C8.4683 8.33209 8.75024 7.46436 9.42835 7.46436H10.3757C10.6789 7.46436 10.9477 7.26908 11.0414 6.98067L11.3342 6.0797Z" fill="#FF9228"/>
</svg>
