<svg width="14" height="12" viewBox="0 0 14 12" fill="none" xmlns="http://www.w3.org/2000/svg">
<path d="M10.0103 0C12.3095 0 13.6666 1.32306 13.6666 3.58787H10.8458V3.61098C9.53672 3.61098 8.47547 4.64566 8.47547 5.922C8.47547 7.19835 9.53672 8.23303 10.8458 8.23303H13.6666V8.44102C13.6666 10.6769 12.3095 12 10.0103 12H3.98955C1.69029 12 0.333252 10.6769 0.333252 8.44102V3.55898C0.333252 1.32306 1.69029 0 3.98955 0H10.0103ZM13.1688 4.58161C13.4437 4.58161 13.6666 4.79889 13.6666 5.06692V6.75397C13.6634 7.0207 13.4424 7.23617 13.1688 7.23929H10.8992C10.2364 7.24798 9.65691 6.80558 9.50658 6.17622C9.4313 5.78553 9.53698 5.38238 9.7953 5.07481C10.0536 4.76725 10.4381 4.58672 10.8458 4.58161H13.1688ZM11.1658 5.36158H10.9466C10.812 5.36004 10.6823 5.41109 10.5866 5.50336C10.4908 5.59562 10.437 5.72142 10.437 5.85267C10.4369 6.12804 10.6642 6.35216 10.9466 6.35532H11.1658C11.4473 6.35532 11.6755 6.13286 11.6755 5.85845C11.6755 5.58404 11.4473 5.36158 11.1658 5.36158ZM7.25473 2.59413H3.49177C3.21261 2.59411 2.98539 2.81306 2.98214 3.08522C2.98214 3.36058 3.20935 3.5847 3.49177 3.58787H7.25473C7.53619 3.58787 7.76436 3.36541 7.76436 3.091C7.76436 2.81658 7.53619 2.59413 7.25473 2.59413Z" fill="white"/>
</svg>
