<svg width="49" height="44" viewBox="0 0 49 44" fill="none" xmlns="http://www.w3.org/2000/svg">
<path d="M44.8732 30.8516C44.491 30.8596 44.1205 30.9827 43.8114 31.2042L40.4481 4.13279C40.3102 3.0226 39.7649 2.00052 38.915 1.25925C38.0652 0.517992 36.9696 0.108773 35.8348 0.108765H12.8694C11.7346 0.108773 10.6389 0.517992 9.78911 1.25925C8.93929 2.00052 8.394 3.0226 8.25604 4.13279L4.89281 31.2042C4.58366 30.9827 4.21314 30.8596 3.83099 30.8516C2.01761 30.8516 0.547607 33.7493 0.547607 37.3238C0.547607 40.8983 2.01761 43.796 3.83099 43.796C5.20855 43.796 6.3861 42.1218 6.87348 39.7509H41.8307C42.3181 42.1218 43.4956 43.796 44.8732 43.796C46.6866 43.796 48.1566 40.8983 48.1566 37.3238C48.1566 33.7493 46.6866 30.8516 44.8732 30.8516ZM13.6811 32.4697C12.8694 32.4697 12.0759 32.2324 11.4009 31.7879C10.726 31.3435 10.1999 30.7117 9.8893 29.9725C9.57867 29.2334 9.49739 28.4201 9.65575 27.6354C9.81412 26.8507 10.205 26.1299 10.779 25.5642C11.353 24.9985 12.0843 24.6132 12.8804 24.4572C13.6766 24.3011 14.5018 24.3812 15.2517 24.6874C16.0017 24.9935 16.6427 25.512 17.0936 26.1772C17.5446 26.8424 17.7853 27.6245 17.7853 28.4246C17.7853 28.9558 17.6792 29.4818 17.4729 29.9725C17.2667 30.4633 16.9643 30.9093 16.5832 31.2849C16.2021 31.6605 15.7497 31.9585 15.2517 32.1618C14.7538 32.365 14.2201 32.4697 13.6811 32.4697V32.4697ZM34.2022 32.4697C33.3905 32.4697 32.597 32.2324 31.922 31.7879C31.2471 31.3435 30.721 30.7117 30.4104 29.9725C30.0998 29.2334 30.0185 28.4201 30.1768 27.6354C30.3352 26.8507 30.7261 26.1299 31.3001 25.5642C31.8741 24.9985 32.6054 24.6132 33.4015 24.4572C34.1977 24.3011 35.0229 24.3812 35.7728 24.6874C36.5228 24.9935 37.1638 25.512 37.6147 26.1772C38.0657 26.8424 38.3064 27.6245 38.3064 28.4246C38.3064 28.9558 38.2003 29.4818 37.994 29.9725C37.7878 30.4633 37.4854 30.9093 37.1043 31.2849C36.7232 31.6605 36.2708 31.9585 35.7728 32.1618C35.2749 32.365 34.7412 32.4697 34.2022 32.4697V32.4697ZM39.1273 17.0154C39.1273 17.345 39.0614 17.6714 38.9334 17.9759C38.8055 18.2804 38.6179 18.5571 38.3814 18.7902C38.145 19.0232 37.8642 19.2081 37.5553 19.3342C37.2463 19.4604 36.9152 19.5253 36.5808 19.5253H12.1234C11.789 19.5253 11.4578 19.4604 11.1489 19.3342C10.8399 19.2081 10.5592 19.0232 10.3227 18.7902C10.0863 18.5571 9.8987 18.2804 9.77073 17.9759C9.64276 17.6714 9.5769 17.345 9.57691 17.0154V9.09082C9.5769 8.76122 9.64276 8.43485 9.77073 8.13034C9.8987 7.82583 10.0863 7.54914 10.3227 7.31608C10.5592 7.08302 10.8399 6.89814 11.1489 6.772C11.4578 6.64587 11.789 6.58094 12.1234 6.58094H36.5808C36.9152 6.58094 37.2463 6.64587 37.5553 6.772C37.8642 6.89814 38.145 7.08302 38.3814 7.31608C38.6179 7.54914 38.8055 7.82583 38.9334 8.13034C39.0614 8.43485 39.1273 8.76122 39.1273 9.09082V17.0154Z" fill="#031A2E"/>
</svg>
