<svg width="13" height="13" viewBox="0 0 13 13" fill="none" xmlns="http://www.w3.org/2000/svg">
<path fill-rule="evenodd" clip-rule="evenodd" d="M12.7319 5.73625L11.8544 4.6475C11.7163 4.46875 11.6269 4.2575 11.6026 4.02187L11.4482 2.64062C11.4169 2.36482 11.293 2.10779 11.0967 1.91151C10.9004 1.71523 10.6434 1.59132 10.3676 1.56L8.98632 1.40562C8.74257 1.38125 8.53132 1.27562 8.35257 1.1375L7.26382 0.26C6.81694 -0.0975003 6.18319 -0.0975003 5.73632 0.26L4.64757 1.1375C4.46882 1.27562 4.25757 1.365 4.02194 1.38937L2.64069 1.54375C2.07194 1.60875 1.62507 2.05562 1.56007 2.62437L1.40569 4.00562C1.38132 4.24937 1.27569 4.46062 1.13757 4.63937L0.260068 5.72813C-0.0974317 6.175 -0.0974317 6.80875 0.260068 7.25563L1.13757 8.34438C1.27569 8.52313 1.36507 8.73438 1.38944 8.97L1.54382 10.3512C1.60882 10.92 2.05569 11.3669 2.62444 11.4319L4.00569 11.5863C4.24944 11.6106 4.46069 11.7163 4.63944 11.8544L5.72819 12.7319C6.17507 13.0894 6.80882 13.0894 7.25569 12.7319L8.34444 11.8544C8.52319 11.7163 8.73444 11.6269 8.97007 11.6025L10.3513 11.4481C10.9201 11.3831 11.3669 10.9362 11.4319 10.3675L11.5863 8.98625C11.6107 8.7425 11.7163 8.53125 11.8544 8.3525L12.7319 7.26375C13.0894 6.81687 13.0894 6.18313 12.7319 5.73625ZM5.28132 9.75L2.43757 6.90625L3.65632 5.6875L5.28132 7.3125L9.34382 3.25L10.5626 4.50938L5.28132 9.75Z" fill="#1B97F1"/>
</svg>
