<svg width="25" height="25" viewBox="0 0 25 25" fill="none" xmlns="http://www.w3.org/2000/svg">
<circle cx="12.5" cy="12.5" r="11.75" stroke="black" stroke-width="1.5"/>
<path d="M12.5001 14.1304C13.4005 14.1304 14.1305 13.4005 14.1305 12.5C14.1305 11.5995 13.4005 10.8696 12.5001 10.8696C11.5996 10.8696 10.8696 11.5995 10.8696 12.5C10.8696 13.4005 11.5996 14.1304 12.5001 14.1304Z" fill="black"/>
<path d="M19.0218 14.1304C19.9223 14.1304 20.6522 13.4005 20.6522 12.5C20.6522 11.5995 19.9223 10.8696 19.0218 10.8696C18.1213 10.8696 17.3914 11.5995 17.3914 12.5C17.3914 13.4005 18.1213 14.1304 19.0218 14.1304Z" fill="black"/>
<path d="M5.97834 14.1304C6.8788 14.1304 7.60877 13.4005 7.60877 12.5C7.60877 11.5995 6.8788 10.8696 5.97834 10.8696C5.07787 10.8696 4.3479 11.5995 4.3479 12.5C4.3479 13.4005 5.07787 14.1304 5.97834 14.1304Z" fill="black"/>
</svg>
