<svg width="18" height="18" viewBox="0 0 18 18" fill="none" xmlns="http://www.w3.org/2000/svg">
<path d="M9 16.7143C8.82589 16.7143 8.67857 16.654 8.55804 16.5335L2.29018 10.4866C2.22321 10.433 2.13114 10.346 2.01395 10.2254C1.89676 10.1049 1.71094 9.8856 1.45647 9.56752C1.20201 9.24944 0.97433 8.92299 0.773437 8.58817C0.572545 8.25335 0.393415 7.84821 0.236049 7.37277C0.078683 6.89732 0 6.43527 0 5.98661C0 4.51339 0.425223 3.36161 1.27567 2.53125C2.12612 1.70089 3.30134 1.28571 4.80134 1.28571C5.21652 1.28571 5.64007 1.3577 6.07199 1.50167C6.50391 1.64565 6.90569 1.83984 7.27734 2.08426C7.649 2.32868 7.96875 2.55803 8.23661 2.77232C8.50446 2.98661 8.75893 3.21428 9 3.45536C9.24107 3.21428 9.49554 2.98661 9.76339 2.77232C10.0312 2.55803 10.351 2.32868 10.7227 2.08426C11.0943 1.83984 11.4961 1.64565 11.928 1.50167C12.3599 1.3577 12.7835 1.28571 13.1987 1.28571C14.6987 1.28571 15.8739 1.70089 16.7243 2.53125C17.5748 3.36161 18 4.51339 18 5.98661C18 7.46652 17.2333 8.97321 15.6998 10.5067L9.44196 16.5335C9.32143 16.654 9.17411 16.7143 9 16.7143Z" fill="#636362"/>
</svg>
