<svg width="25" height="25" viewBox="0 0 25 25" fill="none" xmlns="http://www.w3.org/2000/svg">
<path d="M12.5 25L12.0816 24.5813C2.56276 15.7297 0 12.6196 0 7.53588C0 3.34928 2.98117 0 6.58996 0C9.62343 0 11.3494 1.97368 12.5 3.4689C13.6506 1.97368 15.3766 0 18.41 0C22.0711 0 25 3.40909 25 7.53588C25 12.6196 22.4372 15.7297 12.9184 24.5813L12.5 25V25ZM6.58996 1.55502C3.71339 1.55502 1.35983 4.24641 1.35983 7.53588C1.35983 11.9019 3.76569 14.7727 12.5 22.9665C21.2343 14.7727 23.6402 11.9019 23.6402 7.53588C23.6402 4.24641 21.2866 1.55502 18.41 1.55502C15.795 1.55502 14.3828 3.34928 13.2845 4.78469L12.5 5.80143L11.7155 4.78469C10.6172 3.34928 9.20502 1.55502 6.58996 1.55502V1.55502Z" fill="black"/>
</svg>
