<svg width="18" height="12" viewBox="0 0 18 12" fill="none" xmlns="http://www.w3.org/2000/svg">
<path d="M12 5.25C13.245 5.25 14.2425 4.245 14.2425 3C14.2425 1.755 13.245 0.75 12 0.75C10.755 0.75 9.75 1.755 9.75 3C9.75 4.245 10.755 5.25 12 5.25ZM6 5.25C7.245 5.25 8.2425 4.245 8.2425 3C8.2425 1.755 7.245 0.75 6 0.75C4.755 0.75 3.75 1.755 3.75 3C3.75 4.245 4.755 5.25 6 5.25ZM6 6.75C4.2525 6.75 0.75 7.6275 0.75 9.375V10.5C0.75 10.9125 1.0875 11.25 1.5 11.25H10.5C10.9125 11.25 11.25 10.9125 11.25 10.5V9.375C11.25 7.6275 7.7475 6.75 6 6.75ZM12 6.75C11.7825 6.75 11.535 6.765 11.2725 6.7875C11.2875 6.795 11.295 6.81 11.3025 6.8175C12.1575 7.44 12.75 8.2725 12.75 9.375V10.5C12.75 10.7625 12.6975 11.0175 12.615 11.25H16.5C16.9125 11.25 17.25 10.9125 17.25 10.5V9.375C17.25 7.6275 13.7475 6.75 12 6.75Z" fill="#636362"/>
</svg>
