<svg width="14" height="16" viewBox="0 0 14 16" fill="none" xmlns="http://www.w3.org/2000/svg">
<path d="M11.155 5.2325C11.6443 5.2325 12.1136 5.03812 12.4596 4.69211C12.8056 4.34611 13 3.87682 13 3.3875C13 2.89817 12.8056 2.42889 12.4596 2.08289C12.1136 1.73688 11.6443 1.5425 11.155 1.5425C10.6657 1.5425 10.1964 1.73688 9.85039 2.08289C9.50438 2.42889 9.31 2.89817 9.31 3.3875C9.31 3.87682 9.50438 4.34611 9.85039 4.69211C10.1964 5.03812 10.6657 5.2325 11.155 5.2325V5.2325ZM2.845 5.2325C3.33432 5.2325 3.80361 5.03812 4.14961 4.69211C4.49562 4.34611 4.69 3.87682 4.69 3.3875C4.69 2.89817 4.49562 2.42889 4.14961 2.08289C3.80361 1.73688 3.33432 1.5425 2.845 1.5425C2.35568 1.5425 1.88639 1.73688 1.54039 2.08289C1.19438 2.42889 1 2.89817 1 3.3875C1 3.87682 1.19438 4.34611 1.54039 4.69211C1.88639 5.03812 2.35568 5.2325 2.845 5.2325V5.2325ZM11.155 14.4575C11.3973 14.4575 11.6372 14.4098 11.8611 14.3171C12.0849 14.2243 12.2883 14.0884 12.4596 13.9171C12.6309 13.7458 12.7668 13.5424 12.8596 13.3186C12.9523 13.0947 13 12.8548 13 12.6125C13 12.3702 12.9523 12.1303 12.8596 11.9064C12.7668 11.6826 12.6309 11.4792 12.4596 11.3079C12.2883 11.1366 12.0849 11.0007 11.8611 10.9079C11.6372 10.8152 11.3973 10.7675 11.155 10.7675C10.6657 10.7675 10.1964 10.9619 9.85039 11.3079C9.50438 11.6539 9.31 12.1232 9.31 12.6125C9.31 13.1018 9.50438 13.5711 9.85039 13.9171C10.1964 14.2631 10.6657 14.4575 11.155 14.4575V14.4575ZM2.845 14.4575C3.08729 14.4575 3.32721 14.4098 3.55105 14.3171C3.7749 14.2243 3.97829 14.0884 4.14961 13.9171C4.32094 13.7458 4.45684 13.5424 4.54956 13.3186C4.64228 13.0947 4.69 12.8548 4.69 12.6125C4.69 12.3702 4.64228 12.1303 4.54956 11.9064C4.45684 11.6826 4.32094 11.4792 4.14961 11.3079C3.97829 11.1366 3.7749 11.0007 3.55105 10.9079C3.32721 10.8152 3.08729 10.7675 2.845 10.7675C2.35568 10.7675 1.88639 10.9619 1.54039 11.3079C1.19438 11.6539 1 12.1232 1 12.6125C1 13.1018 1.19438 13.5711 1.54039 13.9171C1.88639 14.2631 2.35568 14.4575 2.845 14.4575V14.4575Z" stroke="#636362" stroke-width="1.5" stroke-miterlimit="10" stroke-linecap="round" stroke-linejoin="round"/>
</svg>
