<svg width="18" height="22" viewBox="0 0 18 22" fill="none" xmlns="http://www.w3.org/2000/svg">
<path fill-rule="evenodd" clip-rule="evenodd" d="M15.9027 7.68577C15.9027 8.98506 16.2443 9.75088 16.9961 10.6334C17.5657 11.2836 17.7478 12.1182 17.7478 13.0236C17.7478 13.928 17.4522 14.7866 16.86 15.4836C16.0848 16.3192 14.9914 16.8527 13.8756 16.9454C12.2586 17.084 10.6406 17.2007 9.00112 17.2007C7.3606 17.2007 5.74361 17.1309 4.12662 16.9454C3.00977 16.8527 1.91643 16.3192 1.1422 15.4836C0.550019 14.7866 0.253418 13.928 0.253418 13.0236C0.253418 12.1182 0.436493 11.2836 1.00515 10.6334C1.7804 9.75088 2.09951 8.98506 2.09951 7.68577V7.24503C2.09951 5.505 2.53111 4.3672 3.41989 3.25337C4.74131 1.629 6.85945 0.654785 8.95509 0.654785H9.04714C11.1878 0.654785 13.3745 1.67588 14.6734 3.37007C15.5161 4.46098 15.9027 5.55084 15.9027 7.24503V7.68577ZM5.98967 19.3391C5.98967 18.8181 6.46526 18.5795 6.90505 18.4774C7.4195 18.368 10.5543 18.368 11.0687 18.4774C11.5085 18.5795 11.9841 18.8181 11.9841 19.3391C11.9585 19.835 11.6691 20.2747 11.2692 20.554C10.7506 20.9603 10.1421 21.2177 9.50594 21.3104C9.15411 21.3563 8.80841 21.3573 8.46885 21.3104C7.83167 21.2177 7.22313 20.9603 6.70561 20.5529C6.30469 20.2747 6.01524 19.835 5.98967 19.3391Z" fill="#1C1A19"/>
</svg>
