<svg width="20" height="18" viewBox="0 0 20 18" fill="none" xmlns="http://www.w3.org/2000/svg">
<path fill-rule="evenodd" clip-rule="evenodd" d="M0 1.5C0 1.10218 0.15051 0.720645 0.418419 0.43934C0.686328 0.158036 1.04969 0 1.42857 0H18.5714C18.9503 0 19.3137 0.158036 19.5816 0.43934C19.8495 0.720645 20 1.10218 20 1.5C20 1.89782 19.8495 2.27936 19.5816 2.56066C19.3137 2.84196 18.9503 3 18.5714 3H1.42857C1.04969 3 0.686328 2.84196 0.418419 2.56066C0.15051 2.27936 0 1.89782 0 1.5ZM0 9C0 8.60218 0.15051 8.22064 0.418419 7.93934C0.686328 7.65804 1.04969 7.5 1.42857 7.5H10C10.3789 7.5 10.7422 7.65804 11.0102 7.93934C11.2781 8.22064 11.4286 8.60218 11.4286 9C11.4286 9.39782 11.2781 9.77936 11.0102 10.0607C10.7422 10.342 10.3789 10.5 10 10.5H1.42857C1.04969 10.5 0.686328 10.342 0.418419 10.0607C0.15051 9.77936 0 9.39782 0 9ZM0 16.5C0 16.1022 0.15051 15.7206 0.418419 15.4393C0.686328 15.158 1.04969 15 1.42857 15H18.5714C18.9503 15 19.3137 15.158 19.5816 15.4393C19.8495 15.7206 20 16.1022 20 16.5C20 16.8978 19.8495 17.2794 19.5816 17.5607C19.3137 17.842 18.9503 18 18.5714 18H1.42857C1.04969 18 0.686328 17.842 0.418419 17.5607C0.15051 17.2794 0 16.8978 0 16.5Z" fill="#272D2F"/>
</svg>
