<svg width="19" height="19" viewBox="0 0 19 19" fill="none" xmlns="http://www.w3.org/2000/svg">
<path d="M17.7011 3.7172C17.4197 2.98979 17.0138 2.33062 16.5063 1.77658C15.9985 1.22089 15.3997 0.779292 14.7425 0.475798C14.0611 0.159844 13.3302 -0.00187919 12.5924 1.64739e-05C11.5572 1.64739e-05 10.5472 0.316423 9.66947 0.914079C9.4595 1.05705 9.26002 1.21408 9.07104 1.38517C8.88206 1.21408 8.68258 1.05705 8.4726 0.914079C7.59489 0.316423 6.5849 1.64739e-05 5.54971 1.64739e-05C4.80429 1.64739e-05 4.08197 0.159392 3.39954 0.475798C2.74021 0.780485 2.14597 1.21877 1.63573 1.77658C1.12757 2.32999 0.721647 2.98932 0.440953 3.7172C0.149084 4.47424 0 5.27814 0 6.10548C0 6.88595 0.142785 7.69923 0.426255 8.52658C0.66353 9.21799 1.00369 9.93517 1.43835 10.6594C2.12707 11.8055 3.07407 13.0008 4.24995 14.2125C6.19854 16.2211 8.12824 17.6086 8.21013 17.6649L8.70778 18.0211C8.92825 18.1781 9.21172 18.1781 9.4322 18.0211L9.92985 17.6649C10.0117 17.6063 11.9393 16.2211 13.89 14.2125C15.0659 13.0008 16.0129 11.8055 16.7016 10.6594C17.1363 9.93517 17.4785 9.21799 17.7137 8.52658C17.9972 7.69923 18.14 6.88595 18.14 6.10548C18.1421 5.27814 17.993 4.47424 17.7011 3.7172Z" fill="#FFC52D"/>
</svg>
