<svg width="13" height="16" viewBox="0 0 13 16" fill="none" xmlns="http://www.w3.org/2000/svg">
<path d="M6.0001 16C7.1001 16 8.0001 15.1 8.0001 14H4.0001C4.0001 15.1 4.9001 16 6.0001 16ZM10.0001 7.8V5.5C10.0001 3.7 8.8001 2.1 7.0001 1.6C7.1001 1.4 7.1001 1.2 7.2001 1.1C7.1001 0.5 6.6001 0 6.0001 0C5.4001 0 4.9001 0.5 4.9001 1.1C4.9001 1.3 5.0001 1.5 5.1001 1.6C3.3001 2 2.1001 3.6 2.1001 5.5V7.7C2.0001 8.9 1.2001 10 0.100098 10.5V13H12.1001V10.5C10.9001 10.1 10.1001 9 10.0001 7.8Z" fill="white"/>
</svg>
