<svg width="14" height="14" viewBox="0 0 14 14" fill="none" xmlns="http://www.w3.org/2000/svg">
<path d="M7 0.75C3.41031 0.75 0.5 3.66031 0.5 7.25C0.5 10.8397 3.41031 13.75 7 13.75C10.5897 13.75 13.5 10.8397 13.5 7.25C13.5 3.66031 10.5897 0.75 7 0.75ZM10 8.25H7C6.86739 8.25 6.74021 8.19732 6.64645 8.10355C6.55268 8.00979 6.5 7.88261 6.5 7.75V3.25C6.5 3.11739 6.55268 2.99021 6.64645 2.89645C6.74021 2.80268 6.86739 2.75 7 2.75C7.13261 2.75 7.25979 2.80268 7.35355 2.89645C7.44732 2.99021 7.5 3.11739 7.5 3.25V7.25H10C10.1326 7.25 10.2598 7.30268 10.3536 7.39645C10.4473 7.49021 10.5 7.61739 10.5 7.75C10.5 7.88261 10.4473 8.00979 10.3536 8.10355C10.2598 8.19732 10.1326 8.25 10 8.25Z" fill="#F7A538"/>
</svg>
