<svg width="125" height="120" viewBox="0 0 125 120" fill="none" xmlns="http://www.w3.org/2000/svg">
<path opacity="0.3" d="M62.5 9.31606C62.5 1.40952 56.0084 -5.163 48.3084 -3.36757C38.5358 -1.08886 29.3839 3.52683 21.6791 10.1724C10.3312 19.9602 2.87781 33.4995 0.677407 48.323C-1.523 63.1465 1.67605 78.2671 9.69152 90.9292C17.707 103.591 30.0053 112.952 44.345 117.305C58.6847 121.658 74.1112 120.714 87.813 114.645C101.515 108.575 112.58 97.7847 118.991 84.2395C125.403 70.6944 126.734 55.2965 122.742 40.852C120.032 31.0448 114.99 22.1204 108.134 14.7936C102.731 9.02061 93.6813 10.8752 89.286 17.4475C84.8906 24.0197 87.0287 32.8447 91.2194 39.5493C92.9388 42.3 94.2669 45.304 95.1443 48.4787C97.3074 56.306 96.586 64.6499 93.1118 71.9898C89.6375 79.3297 83.6416 85.1769 76.2167 88.4659C68.7919 91.7548 60.4325 92.2664 52.662 89.9075C44.8916 87.5486 38.2273 82.4763 33.8838 75.6148C29.5403 68.7534 27.8068 60.5598 28.9992 52.5271C30.1916 44.4945 34.2304 37.1577 40.3797 31.8538C42.8739 29.7026 45.6479 27.9439 48.6062 26.6132C55.8169 23.3697 62.5 17.2226 62.5 9.31606Z" fill="#FCC07E"/>
</svg>
